<?xml version="1.0" standalone="no"?>
<!DOCTYPE svg PUBLIC "-//W3C//DTD SVG 20010904//EN"
 "http://www.w3.org/TR/2001/REC-SVG-20010904/DTD/svg10.dtd">
<svg version="1.0" xmlns="http://www.w3.org/2000/svg"
 width="1000.000000pt" height="1000.000000pt" viewBox="0 0 1000.000000 1000.000000"
 preserveAspectRatio="xMidYMid meet">
<metadata>
Created by potrace 1.16, written by Peter Selinger 2001-2019
</metadata>
<g transform="translate(0.000000,1000.000000) scale(0.100000,-0.100000)"
fill="#000000" stroke="none">
<path d="M4800 7594 c-372 -44 -601 -103 -870 -224 -503 -227 -938 -629 -1209
-1119 -146 -263 -254 -589 -298 -896 -25 -181 -25 -529 0 -710 54 -378 192
-747 401 -1068 184 -285 493 -590 780 -771 309 -196 676 -331 1041 -383 181
-25 529 -25 710 0 365 52 732 187 1041 383 293 185 613 505 798 798 196 309
331 676 383 1041 25 179 25 528 -1 710 -63 452 -243 878 -526 1245 -94 122
-328 356 -450 450 -360 277 -770 454 -1212 521 -127 20 -496 34 -588 23z m415
-204 c1074 -99 1949 -897 2145 -1955 132 -717 -67 -1446 -545 -2003 -553 -644
-1413 -946 -2250 -792 -978 181 -1744 947 -1925 1925 -213 1157 446 2299 1555
2696 322 114 681 160 1020 129z"/>
<path d="M3924 6352 c-102 -72 -197 -179 -244 -276 -52 -105 -70 -177 -77
-306 -8 -158 9 -267 62 -399 284 -702 797 -1261 1463 -1595 211 -106 340 -154
445 -167 109 -14 278 -6 362 16 160 41 319 157 421 305 l48 70 -18 157 c-9 87
-20 161 -24 164 -10 10 -675 259 -689 259 -7 0 -81 -48 -165 -106 -84 -59
-172 -115 -195 -127 l-41 -20 -76 27 c-152 56 -332 181 -497 345 -164 165
-289 345 -345 497 l-27 76 20 41 c12 23 68 111 127 195 58 84 106 158 106 165
0 7 -58 166 -128 353 l-129 339 -79 11 c-43 7 -117 15 -164 19 l-85 7 -71 -50z"/>
</g>
</svg>
